<?xml version="1.0" standalone="no"?>
<!DOCTYPE svg PUBLIC "-//W3C//DTD SVG 20010904//EN"
 "http://www.w3.org/TR/2001/REC-SVG-20010904/DTD/svg10.dtd">
<svg version="1.0" xmlns="http://www.w3.org/2000/svg"
 width="1000.000000pt" height="1000.000000pt" viewBox="0 0 1000.000000 1000.000000"
 preserveAspectRatio="xMidYMid meet">
<metadata>
Created by potrace 1.14, written by Peter Selinger 2001-2017
</metadata>
<g transform="translate(0.000000,1000.000000) scale(0.100000,-0.100000)"
fill="#000000" stroke="none">
<path d="M1695 8083 c-246 -44 -431 -211 -492 -443 -15 -60 -17 -248 -17
-2620 0 -1405 3 -2575 7 -2600 35 -247 210 -437 468 -507 13 -4 1506 -7 3318
-8 3639 -3 3365 -7 3511 62 165 79 306 279 320 453 6 79 4 5113 -2 5165 -6 50
-11 68 -30 115 -57 142 -166 265 -288 323 -146 70 129 65 -3493 64 -1805 0
-3291 -2 -3302 -4z m6605 -435 c26 -14 57 -41 75 -66 l29 -43 1 -449 c0 -248
-2 -451 -5 -452 -3 0 -301 -2 -662 -3 -362 -1 -660 -3 -662 -6 -8 -8 -8 -33
-7 -216 l1 -183 667 -2 668 -3 -1 -1875 c0 -1031 -3 -1891 -7 -1910 -9 -47
-67 -105 -114 -117 -23 -6 -1298 -9 -3300 -9 l-3261 1 -43 30 c-23 17 -52 48
-63 70 l-21 40 0 1885 0 1885 80 5 79 5 1 193 c0 107 -4 196 -9 200 -5 3 -39
6 -75 6 l-66 1 -1 440 c0 242 4 456 9 475 10 40 75 106 109 113 13 2 1488 5
3278 6 l3256 1 44 -22z"/>
<path d="M2073 7399 c-135 -26 -224 -166 -190 -301 11 -43 14 -44 44 -23 53
37 107 48 258 50 83 2 158 4 167 4 15 1 17 8 13 46 -15 151 -147 252 -292 224z"/>
<path d="M2865 7392 c-68 -22 -136 -91 -155 -156 -18 -67 -19 -106 0 -107 57
-3 449 -4 464 0 16 3 18 11 13 52 -19 157 -173 258 -322 211z"/>
<path d="M3715 7401 c-127 -32 -213 -152 -194 -272 10 -62 48 -130 92 -163 69
-52 189 -69 212 -31 28 48 74 102 105 122 80 51 80 51 80 101 0 89 -69 192
-150 226 -46 19 -107 26 -145 17z"/>
<path d="M2113 6063 c2 -390 6 -717 9 -728 3 -11 9 -42 12 -69 4 -27 9 -52 11
-55 1 -3 6 -24 9 -46 12 -72 76 -247 126 -342 101 -194 247 -358 422 -476 105
-70 278 -153 361 -172 9 -2 22 -7 27 -10 7 -4 10 -168 10 -473 l-1 -467 548
-3 548 -2 0 471 0 471 80 28 c494 171 832 588 900 1110 4 30 10 64 12 75 3 11
6 329 7 708 l1 687 -527 0 -528 0 -1 -647 c0 -357 -3 -661 -5 -678 -20 -137
-67 -239 -149 -320 -94 -94 -206 -137 -345 -134 -132 4 -233 44 -319 127 -65
62 -107 140 -134 248 -22 88 -22 100 -22 747 l1 657 -529 0 -528 0 4 -707z"/>
<path d="M5619 6758 c-5 -76 -2 -2482 4 -2537 15 -153 46 -257 114 -393 83
-165 215 -309 383 -420 145 -95 345 -162 545 -182 52 -6 360 -8 903 -7 l322 1
0 428 0 428 -494 0 -494 0 -53 28 c-62 31 -94 67 -119 134 -16 44 -18 127 -18
1272 0 674 -1 1233 -1 1243 -1 16 -34 17 -546 17 -429 0 -545 -3 -546 -12z"/>
<path d="M3543 6632 c-23 -3 -23 -4 -23 -203 l0 -200 132 3 133 3 0 198 c0
169 -2 197 -15 198 -59 3 -209 3 -227 1z"/>
<path d="M7080 5760 c-7 -4 -14 -288 -11 -393 1 -16 22 -17 339 -16 308 0 342
2 378 19 76 36 113 87 121 164 10 92 -30 167 -110 208 -39 20 -58 21 -375 22
-184 0 -338 -1 -342 -4z"/>
<path d="M7074 4891 c-2 -2 -4 -95 -4 -207 l0 -202 338 0 c310 0 341 1 381 19
44 19 74 46 99 89 20 34 26 121 12 165 -16 48 -77 109 -125 125 -33 11 -690
21 -701 11z"/>
<path d="M5240 4495 c-10 -12 -10 -15 4 -15 9 0 16 7 16 15 0 8 -2 15 -4 15
-2 0 -9 -7 -16 -15z"/>
<path d="M4711 4001 c-24 -16 -70 -41 -102 -57 l-59 -28 0 -148 0 -148 446 0
c245 0 444 3 442 8 -68 141 -112 255 -138 360 l-11 42 -267 -1 -267 0 -44 -28z"/>
<path d="M2237 3155 c-140 -48 -185 -217 -89 -325 73 -82 -200 -75 2867 -74
2728 0 2730 0 2775 21 47 21 98 68 87 80 -4 3 -282 7 -619 9 -337 1 -629 4
-648 7 -97 14 -157 25 -273 52 -103 24 -304 116 -425 195 l-72 47 -644 1 -644
0 -17 -50 c-41 -128 -134 -214 -260 -243 -36 -8 -223 -11 -650 -10 -526 2
-605 4 -643 18 -105 40 -188 126 -219 229 l-17 57 -238 -1 c-152 -1 -249 -5
-271 -13z"/>
</g>
</svg>
